<?xml version="1.0" encoding="utf-8"?>
<!-- Generator: Adobe Illustrator 16.0.0, SVG Export Plug-In . SVG Version: 6.00 Build 0)  -->
<!DOCTYPE svg PUBLIC "-//W3C//DTD SVG 1.1//EN" "http://www.w3.org/Graphics/SVG/1.1/DTD/svg11.dtd">
<svg version="1.1" id="Layer_1" xmlns="http://www.w3.org/2000/svg" xmlns:xlink="http://www.w3.org/1999/xlink" x="0px" y="0px"
	 width="311.499px" height="311.5px" viewBox="0 0 311.499 311.5" enable-background="new 0 0 311.499 311.5" xml:space="preserve">
<g>
	<path fill="#009BDE" d="M155.749,305.5C73.177,305.5,6,238.322,6,155.75S73.177,6,155.749,6c82.572,0,149.75,67.178,149.75,149.75
		S238.321,305.5,155.749,305.5z"/>
	<g>
		<path fill="#0B415F" d="M155.749,12c79.391,0,143.75,64.359,143.75,143.75S235.14,299.5,155.749,299.5S12,235.141,12,155.75
			S76.358,12,155.749,12 M155.749,0C114.147,0,75.035,16.201,45.618,45.618S0,114.148,0,155.75s16.201,80.714,45.618,110.132
			S114.147,311.5,155.749,311.5s80.714-16.201,110.132-45.618s45.618-68.53,45.618-110.132s-16.201-80.714-45.618-110.132
			S197.351,0,155.749,0L155.749,0z"/>
	</g>
</g>
<g>
	<path fill="#FFFFFF" d="M225.972,207.525L203.38,230.12c-0.753,0.752-1.974,0.752-2.727-0.003l-37.851-37.85
		c-0.753-0.754-0.753-1.974,0-2.727l22.592-22.593c0.753-0.753,1.974-0.752,2.727,0l37.851,37.852
		C226.725,205.552,226.726,206.773,225.972,207.525z M202.016,226.028l19.866-19.865l-35.125-35.124l36.171,34.548L202.016,226.028z
		"/>
</g>
<g>
	<path fill="#40ADDD" d="M132.866,116.804l-20.383,20.384c-0.679,0.679-1.595,0.864-2.046,0.412l-22.66-22.658
		c-0.451-0.452-0.266-1.367,0.414-2.047l20.383-20.383c0.679-0.679,1.595-0.863,2.046-0.413l22.66,22.659
		C133.73,115.208,133.546,116.125,132.866,116.804z M112.081,134.324l17.922-17.922l-21.027-21.027l21.9,20.436L112.081,134.324z"/>
</g>
<g>
	<path fill="#09405E" d="M90.494,152.422l-6.732,9.232c-1.518-1.732-0.862,0.307-1.205-0.037l-17.21-17.209
		c-0.343-0.344-0.359-0.883-0.036-1.205l9.688-9.688c0.323-0.322,0.862-0.306,1.205,0.036l14.854,18.122
		C91.398,152.017,90.817,152.099,90.494,152.422z M83.106,159.829l8.518-8.518l-15.971-15.97l16.426,15.729L83.106,159.829z"/>
</g>
<g>
	<path fill="#FFFFFF" d="M160.263,147.872l-16.398,16.399c-0.547,0.546-1.427,0.552-1.966,0.012l-27.111-27.11
		c-0.539-0.54-0.533-1.42,0.013-1.966l16.398-16.399c0.546-0.546,1.427-0.552,1.966-0.013l27.111,27.111
		C160.814,146.445,160.81,147.326,160.263,147.872z M142.901,161.328l14.419-14.419l-25.158-25.158l25.916,24.737L142.901,161.328z"
		/>
</g>
<g>
	<path fill="#FFFFFF" d="M109.28,137.133l-15.779,10.363c5.262,6.509-8.907-5.267-2.24,1.406L76.62,134.262
		c-0.539-0.54-0.533-1.42,0.013-1.966l11.593-16.216c0.546-0.546,6.233-0.735,3.979,2.263 M93.995,118.84l25.916,24.737"/>
</g>
<g>
	<path fill="#FFFFFF" d="M137.531,84.233l-11.884,20.458c-0.546,0.546-1.227,0.751-1.52,0.458l-14.714-14.714
		c-0.292-0.293-0.087-0.973,0.459-1.52L137.531,77.9c0.546-0.546,4.814-0.292,5.107,0l-2.042,4.5
		C140.889,82.693,138.078,83.688,137.531,84.233z M125.577,102.641l10.047-15.24l3.228-2.267l2.579-3.4L125.577,102.641z"/>
</g>
<g>
	<path fill="#2797D4" d="M185.625,164.449l-25.942,25.943c-0.865,0.864-1.996,1.135-2.527,0.602l-26.707-26.705
		c-0.531-0.532-0.261-1.663,0.604-2.527l25.942-25.943c0.864-0.863,1.997-1.134,2.527-0.603l26.707,26.707
		C186.759,162.454,186.49,163.586,185.625,164.449z M159.325,186.902l22.81-22.811l-24.783-24.782l25.88,24.017L159.325,186.902z"/>
</g>
<g>
	<path fill="#09405E" d="M229.815,208.62l-25.341,25.343c-0.845,0.844-2.214,0.844-3.059-0.002l-42.457-42.456
		c-0.844-0.845-0.844-2.214,0-3.058l25.341-25.342c0.845-0.845,2.214-0.844,3.059,0l42.457,42.457
		C230.659,206.406,230.66,207.776,229.815,208.62z M202.944,229.374l22.283-22.282l-39.398-39.398l-22.283,22.282L202.944,229.374z"
		/>
</g>
<g>
	<path fill="#09405E" d="M174.727,162.228l-16.646,16.646c-0.845,0.845-2.214,0.845-3.059-0.001l-42.456-42.455
		c-0.844-0.846-0.844-2.215,0-3.059l16.646-16.646c0.845-0.844,2.213-0.844,3.059,0.001l42.456,42.456
		C175.572,160.015,175.572,161.384,174.727,162.228z M156.552,174.287l13.587-13.588l-39.398-39.398l-13.587,13.587L156.552,174.287
		z"/>
</g>
<g>
	<path fill="#09405E" d="M134.99,117.051l-22.085,22.087c-0.845,0.845-2.214,0.845-3.058,0l-23.755-23.755
		c-0.844-0.845-0.844-2.214,0-3.06l22.086-22.085c0.845-0.845,2.214-0.845,3.059,0l23.755,23.756
		C135.835,114.838,135.835,116.206,134.99,117.051z M111.375,134.55l19.028-19.027l-20.697-20.697l-19.027,19.027L111.375,134.55z"
		/>
</g>
<g>
	<path fill="#09405E" d="M185.835,167.785l-22.198,22.197c-3.146,3.146-8.264,3.146-11.41,0c-3.146-3.145-3.146-8.264,0-11.409
		l22.198-22.198c3.146-3.146,8.264-3.146,11.41,0C188.981,159.521,188.981,164.639,185.835,167.785z M155.286,181.631
		c-1.459,1.459-1.459,3.834,0,5.294c1.46,1.459,3.834,1.458,5.293-0.001l22.197-22.197c1.46-1.46,1.46-3.834,0-5.293
		c-1.459-1.459-3.833-1.459-5.292,0L155.286,181.631z"/>
</g>
<g>
	<path fill="#09405E" d="M130.317,112.379c-0.844,0.844-2.214,0.844-3.058-0.001l-19.082-19.082
		c-0.79-0.788-0.849-2.049-0.136-2.907c0.04-0.051,0.417-0.501,1.136-1.22c3.268-3.269,15.598-13.933,37.041-13.932
		c0.918-0.001,1.738,0.58,2.041,1.449c0.302,0.868,0.022,1.831-0.696,2.406c-0.033,0.026-3.392,2.707-7.261,6.575
		c-14.633,14.634-12.537,21.1-9.985,23.652C131.161,110.164,131.162,111.533,130.317,112.379z M112.737,91.739l11.457,11.457
		c0.613-4.967,4.117-11.654,13.05-20.586c0.995-0.995,1.952-1.909,2.833-2.726C124.981,81.493,115.926,88.712,112.737,91.739z"/>
</g>
<g>
	<path fill="#09405E" d="M112.905,139.138c-0.389,0.388-0.924,0.63-1.515,0.634c-0.188,0.007-7.374,0.383-18.467,11.477
		c-0.844,0.844-2.214,0.844-3.058,0l-15.884-15.884c-0.845-0.845-0.845-2.214,0-3.058c11.185-11.187,11.475-18.399,11.477-18.471
		c-0.009-1.194,0.954-2.153,2.148-2.16c1.195-0.009,2.168,0.969,2.177,2.163c0.001,0.247-0.032,2.521-1.674,6.305
		c-1.899,4.383-5.113,8.974-9.561,13.672l12.866,12.865c4.696-4.448,9.289-7.661,13.67-9.562c3.785-1.641,6.058-1.675,6.305-1.674
		c1.194,0.009,2.156,0.983,2.148,2.177C113.534,138.214,113.292,138.749,112.905,139.138z"/>
</g>
<g>
	<path fill="#2797D4" d="M90.789,157.27l-1.989,1.989c-3.172,3.173-8.334,3.173-11.507,0l-11.324-11.324
		c-3.172-3.172-3.172-8.334,0-11.506l1.989-1.99c3.173-3.173,8.334-3.173,11.507,0l11.323,11.324
		C93.962,148.935,93.962,154.098,90.789,157.27z M69.028,139.486c-1.486,1.486-1.486,3.904,0,5.391l11.323,11.324
		c1.486,1.484,3.905,1.485,5.391,0l1.989-1.988c1.486-1.487,1.486-3.906,0-5.392l-11.323-11.324
		c-1.486-1.485-3.904-1.485-5.391,0.001L69.028,139.486z"/>
</g>
<path fill="#FFFFFF" d="M187.616,107.937l19.501,19.502l31.627-20.641l-2.75,33.654l-18.529,12.302l-22.241-2.059l-93.703,77.14
	l0.124,0.123c-3.989,3.988-10.457,3.988-14.446,0c-3.989-3.988-3.989-10.457,0-14.445l77.139-93.704l-2.059-22.24l12.303-18.53
	l33.654-2.747l-20.641,31.625l19.501,19.501"/>
<g>
	<path fill="#2797D4" d="M99.761,222.003c-1.619,0-3.141-0.631-4.286-1.775c-2.363-2.363-2.362-6.209,0.001-8.571
		c1.145-1.145,2.667-1.775,4.285-1.775s3.14,0.63,4.285,1.773c2.364,2.364,2.363,6.21,0,8.573
		C102.902,221.372,101.38,222.003,99.761,222.003z M99.762,213.083c-0.764,0-1.481,0.297-2.021,0.837
		c-1.115,1.114-1.115,2.929,0,4.044c1.08,1.081,2.963,1.079,4.043,0c1.115-1.116,1.115-2.931,0-4.045
		C101.244,213.38,100.526,213.083,99.762,213.083z"/>
</g>
<g>
	<path fill="#40ADDD" d="M96.019,232.333c-3.28,0-6.56-1.248-9.056-3.745c-2.419-2.418-3.751-5.635-3.751-9.056
		c0-3.373,1.295-6.548,3.65-8.954l74.748-90.799l-1.91-20.639c-0.059-0.637,0.102-1.274,0.455-1.808l12.052-18.15
		c0.475-0.715,1.25-1.173,2.105-1.242l32.966-2.693c1.062-0.087,2.088,0.439,2.635,1.358c0.547,0.92,0.523,2.069-0.061,2.966
		l-18.976,29.075l17.495,17.494c1.094,1.094,1.094,2.868,0,3.962c-1.094,1.094-2.868,1.094-3.962,0L185.307,111
		c-0.937-0.937-1.09-2.402-0.365-3.513l17.093-26.189l-25.912,2.116L165.37,99.609l1.925,20.802
		c0.068,0.736-0.157,1.469-0.626,2.039l-75.562,91.788c-0.058,0.069-0.118,0.137-0.182,0.2c-1.361,1.36-2.11,3.169-2.11,5.094
		c0,1.924,0.75,3.733,2.11,5.095c2.809,2.808,7.379,2.808,10.188,0c1.094-1.095,2.869-1.094,3.962,0
		c1.094,1.094,1.094,2.868,0,3.961C102.578,231.085,99.298,232.333,96.019,232.333z"/>
</g>
<g>
	<path fill="#40ADDD" d="M95.897,232.219c-3.421,0-6.637-1.332-9.056-3.752c-2.418-2.418-3.751-5.634-3.751-9.056
		c0-3.421,1.333-6.637,3.751-9.056c1.094-1.095,2.869-1.095,3.962,0c1.094,1.093,1.094,2.867,0,3.961
		c-1.361,1.361-2.11,3.171-2.11,5.095c0,1.925,0.75,3.733,2.11,5.095c1.361,1.36,3.17,2.109,5.094,2.109
		c1.924,0,3.733-0.749,5.094-2.109c0.064-0.064,0.131-0.126,0.2-0.183l91.788-75.562c0.571-0.47,1.304-0.693,2.039-0.627
		l20.802,1.926l16.195-10.753l2.117-25.912l-26.19,17.093c-1.11,0.725-2.575,0.573-3.513-0.365l-19.103-19.103
		c-1.094-1.094-1.094-2.868,0-3.962c1.095-1.095,2.868-1.094,3.962,0l17.495,17.495l29.075-18.976
		c0.896-0.585,2.046-0.608,2.965-0.062s1.446,1.569,1.359,2.636l-2.694,32.966c-0.07,0.854-0.527,1.631-1.243,2.105l-18.15,12.052
		c-0.533,0.354-1.171,0.511-1.808,0.455l-20.638-1.91l-90.799,74.748C102.445,230.923,99.271,232.219,95.897,232.219z"/>
</g>
<g>
	<path fill="#2797D4" d="M116.385,197.164c-0.361,0-0.724-0.121-1.023-0.37c-0.68-0.565-0.772-1.575-0.207-2.255l3.258-3.915
		c0.566-0.682,1.576-0.772,2.254-0.207c0.68,0.565,0.772,1.575,0.207,2.255l-3.257,3.915
		C117.3,196.968,116.844,197.164,116.385,197.164z"/>
</g>
<g>
	<path fill="#2797D4" d="M125.114,186.672c-0.361,0-0.724-0.121-1.023-0.37c-0.68-0.565-0.773-1.574-0.207-2.255l10.613-12.759
		c0.566-0.68,1.576-0.773,2.254-0.206c0.68,0.565,0.773,1.574,0.207,2.254l-10.613,12.759
		C126.029,186.476,125.573,186.672,125.114,186.672z"/>
</g>
<g>
	<path fill="#2797D4" d="M154.808,150.963c-0.361,0-0.724-0.121-1.023-0.37c-0.68-0.565-0.773-1.574-0.207-2.255l10.613-12.759
		c0.566-0.68,1.576-0.773,2.254-0.206c0.68,0.565,0.773,1.574,0.207,2.254l-10.613,12.759
		C155.723,150.767,155.267,150.963,154.808,150.963z"/>
</g>
<g>
	<path fill="#2797D4" d="M141.088,167.47c-0.361,0-0.724-0.121-1.023-0.371c-0.68-0.564-0.772-1.574-0.207-2.254l23.854-28.674
		l2.461,2.048l-23.854,28.674C142.003,167.273,141.548,167.47,141.088,167.47z"/>
</g>
</svg>
